inDegrees=no
num_controls=7
num_derivatives=13
num_iterations=135
num_multipliers=7
num_parameters=0
num_slacks=7
num_states=26
objective=5.766173
objective_accelerations=0.786238
objective_balance=0.066907
objective_effort=0.388330
objective_height=4.501397
objective_ligament=0.023301
solver_duration=1508.904146
status=Solve_Succeeded
success=true
DataType=double
version=3
OpenSimVersion=4.4-2022-07-23-0e9fedc
endheader
time	/jointset/ground_pelvis/pelvis_tilt/value	/jointset/ground_pelvis/pelvis_tx/value	/jointset/ground_pelvis/pelvis_ty/value	/jointset/hip_l/hip_flexion_l/value	/jointset/hip_l/hip_adduction_l/value	/jointset/hip_l/hip_rotation_l/value	/jointset/back/lumbar_extension/value	/jointset/patellofemoral_l/patellar_flexion_l/value	/jointset/knee_l/knee_flexion_l/value	/jointset/knee_l/knee_adduction_l/value	/jointset/knee_l/knee_rotation_l/value	/jointset/ankle_l/ankle_angle_l/value	/jointset/subtalar_l/subtalar_angle_l/value	/jointset/ground_pelvis/pelvis_tilt/speed	/jointset/ground_pelvis/pelvis_tx/speed	/jointset/ground_pelvis/pelvis_ty/speed	/jointset/hip_l/hip_flexion_l/speed	/jointset/hip_l/hip_adduction_l/speed	/jointset/hip_l/hip_rotation_l/speed	/jointset/back/lumbar_extension/speed	/jointset/patellofemoral_l/patellar_flexion_l/speed	/jointset/knee_l/knee_flexion_l/speed	/jointset/knee_l/knee_adduction_l/speed	/jointset/knee_l/knee_rotation_l/speed	/jointset/ankle_l/ankle_angle_l/speed	/jointset/subtalar_l/subtalar_angle_l/speed	/forceset/tau_hip_flexion_l	/forceset/tau_hip_adduction_l	/forceset/tau_hip_rotation_l	/forceset/tau_knee_flexion_l	/forceset/tau_ankle_angle_l	/forceset/tau_subtalar_angle_l	/forceset/tau_lumbar_extension	lambda_cid13_p0	lambda_cid13_p1	lambda_cid13_p2	lambda_cid13_p3	lambda_cid13_p4	lambda_cid13_p5	lambda_cid14_p0	/jointset/ground_pelvis/pelvis_tilt/accel	/jointset/ground_pelvis/pelvis_tx/accel	/jointset/ground_pelvis/pelvis_ty/accel	/jointset/hip_l/hip_flexion_l/accel	/jointset/hip_l/hip_adduction_l/accel	/jointset/hip_l/hip_rotation_l/accel	/jointset/back/lumbar_extension/accel	/jointset/patellofemoral_l/patellar_flexion_l/accel	/jointset/knee_l/knee_flexion_l/accel	/jointset/knee_l/knee_adduction_l/accel	/jointset/knee_l/knee_rotation_l/accel	/jointset/ankle_l/ankle_angle_l/accel	/jointset/subtalar_l/subtalar_angle_l/accel	gamma_cid13_p0	gamma_cid13_p1	gamma_cid13_p2	gamma_cid13_p3	gamma_cid13_p4	gamma_cid13_p5	gamma_cid14_p0
1.5	-0.5311902095448782	-0.1017943668746542	0.7417827321503992	1.313277966697553	-0.4337063346211	-0.2365515149840295	-0.2364103992311161	0.6884187204241932	0.6884187204241922	-0.1742434196226832	-0.1441368437741611	-0.05105531487129576	-0.1093016111251547	1.119355757413155	0.4522684190328659	0.5949203515731174	-2.969045449819776	0.2319612792140169	-0.6284174747539166	0.2779673662186894	-1.690643890348095	-1.690643890348122	-0.006359212049400669	0.1438502213497879	0.06481872407695757	0.2789477874747929	-0.2496618315632508	0.01749126452072334	0.003410509661343335	-0.1539024135320844	0.1035008698415048	0.0584031160680286	0.2174755442438054	-0.02081575962682879	-27.20177881448085	6.103598199787226	-12.14503006637969	-520.0706436454287	-60.5154696548374	-30.38504208521757	0.9848570215787225	0.9823347567475791	-0.4438541001273067	-1.866378581142027	0.5899058611095362	-0.06194338801665267	1.742881005430887	-1.170964314940303	-1.170964314940286	0.1149835200680469	0.2702494027711533	-0.08909078780655207	0.6188773379443693	-2.062195285898018e-08	9.08459833413e-07	-3.050308359547392e-08	3.186626251932003e-07	3.347883091980319e-07	-5.174952744428847e-07	1.756481806081849e-07
1.51	-0.5199475204170994	-0.09722300300662902	0.7477085108881486	1.283496260319594	-0.4313586321625074	-0.2428395575801207	-0.2335452765316298	0.6714562611953023	0.6714562611953001	-0.1743027518448396	-0.14268717860349	-0.0504117248739997	-0.1064826678122373	1.129015330082683	0.4619432464872785	0.5901035481784153	-2.986877069978978	0.2375498051345416	-0.6291050144544188	0.2950454893075028	-1.701613116620096	-1.701613116620095	-0.005518473853684307	0.1460699247435048	0.06389821609732813	0.2848123364586897	-0.2411301594815849	0.01690923840977762	0.003533119060485069	-0.151917818119221	0.1001434043056883	0.05671347150515992	0.2108922421162981	-0.7712349425158677	-26.39362306022596	6.039920666170644	-11.38171760834101	-514.8952082331739	-60.73047893462571	-31.1131941971028	0.9314797279530981	0.9509684500972381	-0.5203062560893645	-1.678753580092542	0.538713619855399	-0.05909109370870282	1.688525304776562	-1.024709953268903	-1.024709953264831	0.06715166919883706	0.1958311199598379	-0.09368826892046019	0.565792928331852	-4.510165017857699e-08	9.886423522806337e-07	3.982072110264412e-08	3.654910631849343e-07	3.262582106538216e-07	-4.88876902635681e-07	1.718920527544295e-07
1.52	-0.5086132410949651	-0.09255670852199797	0.7535821790325612	1.253548797770686	-0.4289559669122436	-0.249131861939738	-0.2305097231324215	0.6543911480697059	0.6543911480696999	-0.1743539701450847	-0.1412157163364097	-0.04977737144967546	-0.103605969159537	1.137673796284741	0.4712545423540415	0.5844982329058079	-3.002196684009512	0.2429538375483208	-0.6292698274605836	0.3120535061631198	-1.711174669689655	-1.711174669689628	-0.004736427662949896	0.1482096406287388	0.06297140948252669	0.2904988554313697	-0.2325984873998988	0.01632721229885198	0.00365572845954347	-0.1499332227063418	0.09678593876987972	0.05502382694231667	0.2043089399887995	-1.532918073793948	-25.58512247616555	5.978047127874501	-10.58208632151629	-509.8572065601287	-60.97073355333251	-31.83143031951465	0.7846357280847239	0.9096284392176807	-0.6015564757083205	-1.363977355408281	0.5530071597604539	0.04260195085085153	1.728859758791546	-0.8894296744519605	-0.8894296744519578	0.1032451190717003	0.2542519010745721	-0.09035051484089952	0.5832713357010421	-6.918172451128498e-08	1.076597485912706e-06	1.344347376626539e-07	4.024827254170539e-07	3.2253458055315e-07	-4.656239884671331e-07	1.65630133065773e-07
1.53	-0.497197485461257	-0.0877990554613277	0.759395966177944	1.223460562627901	-0.4265002122034547	-0.2554238323828537	-0.2273046343723721	0.6372375817764111	0.6372375817764151	-0.1743973958677452	-0.1397237708394821	-0.04915204229383906	-0.1006731929822259	1.145293763512666	0.480220521836383	0.5781371913467158	-3.015032324719686	0.2481614710906752	-0.6290472841145788	0.3289403843317696	-1.719292211929238	-1.719292211929217	-0.003959684133634526	0.150157288341196	0.0621192360981804	0.2960336924356036	-0.2236264278132541	0.01513179136210539	0.003622905726094734	-0.148955177951065	0.09517552395576616	0.0530704669793272	0.1973985342326116	-1.748097310794683	-24.77795278567833	5.939428859207651	-10.28091337208256	-504.9679649176856	-61.09123532036115	-32.53631430599405	0.7231105923580439	0.88183915750757	-0.6716137879257692	-1.180682778506632	0.4990367997053857	0.0237800038123613	1.665022618481078	-0.735990328351356	-0.7359903283524536	0.06351242875121448	0.161663509999564	-0.0789213511754758	0.5349579215052653	-9.283719942042361e-08	1.172811022731993e-06	2.548571043259232e-07	4.290228134045834e-07	3.239178231737383e-07	-4.480718730396567e-07	1.56705809552534e-07
1.54	-0.4857110434808307	-0.08295339131488108	0.7651424957493524	1.193256506008078	-0.423993502089595	-0.2617112374970308	-0.2239313926761205	0.6200102252947945	0.6200102252948062	-0.1744333294633685	-0.1382130204046767	-0.04853448899203373	-0.09768579482712818	1.151811065629059	0.4888567595093138	0.5710467181109786	-3.02536097941725	0.2531449185623186	-0.628356761675085	0.3456840934035996	-1.72593270735442	-1.725932707354407	-0.003238002248725294	0.1519706282003855	0.06141623867607546	0.3014232509886679	-0.2146543682265626	0.01393637042539701	0.003590082992533662	-0.1479771331957614	0.09356510914166719	0.05111710701638562	0.1904881284764471	-1.974521876594032	-23.96807737343527	5.899537675499325	-9.933222895132124	-500.2100205504925	-61.23469433871495	-33.224356487352	0.5641027057782679	0.8436800773355464	-0.7474428110373328	-0.8625801528860372	0.5081699456182643	0.1361977695486377	1.700225939427513	-0.5940203115718019	-0.5940203115718035	0.09223279019054101	0.2273903304210499	-0.06051532239257498	0.5542156454671509	-9.73179629068329e-08	1.206263609002419e-06	2.59083555462416e-07	4.319049111309598e-07	3.381279143266052e-07	-4.261925457019015e-07	1.545907190983057e-07
1.55	-0.4741648169642909	-0.0780233053428923	0.7708144928596918	1.162961832847647	-0.4214381143959377	-0.2679890200060434	-0.2203917309418959	0.6027238215022388	0.6027238215022442	-0.1744626078270045	-0.13668444097831	-0.04792350601321684	-0.09464541159457904	1.157255193830452	0.4970745975643941	0.5632321575731799	-3.033125958392282	0.2578933393827456	-0.6271238461922326	0.3621990307791852	-1.731091683155263	-1.731091683155255	-0.002625062620435153	0.1537226017003284	0.06077868492753234	0.306613898180284	-0.2062511480330151	0.01317686065932542	0.00366790707081953	-0.1456807092956811	0.08996220897811914	0.04924596064085668	0.1838638794854787	-2.838872259721586	-23.06599849074236	5.826427916310079	-8.940613989200955	-495.3881455200213	-61.30046384027856	-33.89181573779582	0.5076864005518297	0.7980388683799355	-0.8164679883567165	-0.6663231227177387	0.4520704843269976	0.1283888510203778	1.619744237137087	-0.4384137148099465	-0.4384137148106345	0.04494840476131778	0.1456279406809081	-0.06562632670086944	0.4953790107977301	-7.970612410183786e-08	1.167404665292639e-06	1.294321039267605e-07	4.075288896434003e-07	3.671167657449228e-07	-3.993275176849122e-07	1.603210493425026e-07
